<svg xmlns="http://www.w3.org/2000/svg" width="960" height="520" viewBox="0 0 960 520" role="img" aria-labelledby="eia-title eia-desc"><title id="eia-title">EIA weekly regular gasoline benchmarks</title><desc id="eia-desc">Six weekly observations compare the U.S., Midwest PADD 2, and Chicago aggregate regular gasoline benchmarks. These are EIA aggregate benchmarks. They are not station prices, local availability, or a quote for any purchase.</desc><rect width="100%" height="100%" fill="#fff"/><g font-family="system-ui, sans-serif" font-size="15" fill="#172026"><text x="480" y="28" text-anchor="middle" font-size="22" font-weight="700">EIA weekly regular gasoline benchmarks</text><g transform="translate(100,55)"><line x1="0" y1="0" x2="32" y2="0" stroke="#a33a2b" stroke-width="4"/><text x="42" y="6">Chicago</text></g><g transform="translate(350,55)"><line x1="0" y1="0" x2="32" y2="0" stroke="#255f85" stroke-width="4"/><text x="42" y="6">Midwest (PADD 2)</text></g><g transform="translate(600,55)"><line x1="0" y1="0" x2="32" y2="0" stroke="#4f6b3c" stroke-width="4"/><text x="42" y="6">U.S.</text></g><line x1="90" y1="390" x2="900" y2="390" stroke="#172026"/><line x1="90" y1="90" x2="90" y2="390" stroke="#172026"/><text x="90.0" y="420" text-anchor="middle">06-15</text><text x="252.0" y="420" text-anchor="middle">06-22</text><text x="414.0" y="420" text-anchor="middle">06-29</text><text x="576.0" y="420" text-anchor="middle">07-06</text><text x="738.0" y="420" text-anchor="middle">07-13</text><text x="900.0" y="420" text-anchor="middle">07-20</text><polyline fill="none" stroke="#a33a2b" stroke-width="4" points="90.0,105.7 252.0,172.9 414.0,196.5 576.0,242.6 738.0,209.2 900.0,190.5"/><g><circle cx="90.0" cy="105.7" r="5" fill="#a33a2b"><title>Chicago 2026-06-15: $4.258 per gallon</title></circle><circle cx="252.0" cy="172.9" r="5" fill="#a33a2b"><title>Chicago 2026-06-22: $4.079 per gallon</title></circle><circle cx="414.0" cy="196.5" r="5" fill="#a33a2b"><title>Chicago 2026-06-29: $4.016 per gallon</title></circle><circle cx="576.0" cy="242.6" r="5" fill="#a33a2b"><title>Chicago 2026-07-06: $3.893 per gallon</title></circle><circle cx="738.0" cy="209.2" r="5" fill="#a33a2b"><title>Chicago 2026-07-13: $3.982 per gallon</title></circle><circle cx="900.0" cy="190.5" r="5" fill="#a33a2b"><title>Chicago 2026-07-20: $4.032 per gallon</title></circle></g><polyline fill="none" stroke="#255f85" stroke-width="4" points="90.0,254.6 252.0,306.4 414.0,343.1 576.0,378.4 738.0,329.3 900.0,285.0"/><g><circle cx="90.0" cy="254.6" r="5" fill="#255f85"><title>Midwest (PADD 2) 2026-06-15: $3.861 per gallon</title></circle><circle cx="252.0" cy="306.4" r="5" fill="#255f85"><title>Midwest (PADD 2) 2026-06-22: $3.723 per gallon</title></circle><circle cx="414.0" cy="343.1" r="5" fill="#255f85"><title>Midwest (PADD 2) 2026-06-29: $3.625 per gallon</title></circle><circle cx="576.0" cy="378.4" r="5" fill="#255f85"><title>Midwest (PADD 2) 2026-07-06: $3.531 per gallon</title></circle><circle cx="738.0" cy="329.3" r="5" fill="#255f85"><title>Midwest (PADD 2) 2026-07-13: $3.662 per gallon</title></circle><circle cx="900.0" cy="285.0" r="5" fill="#255f85"><title>Midwest (PADD 2) 2026-07-20: $3.780 per gallon</title></circle></g><polyline fill="none" stroke="#4f6b3c" stroke-width="4" points="90.0,183.0 252.0,234.7 414.0,265.9 576.0,286.1 738.0,256.9 900.0,202.1"/><g><circle cx="90.0" cy="183.0" r="5" fill="#4f6b3c"><title>U.S. 2026-06-15: $4.052 per gallon</title></circle><circle cx="252.0" cy="234.7" r="5" fill="#4f6b3c"><title>U.S. 2026-06-22: $3.914 per gallon</title></circle><circle cx="414.0" cy="265.9" r="5" fill="#4f6b3c"><title>U.S. 2026-06-29: $3.831 per gallon</title></circle><circle cx="576.0" cy="286.1" r="5" fill="#4f6b3c"><title>U.S. 2026-07-06: $3.777 per gallon</title></circle><circle cx="738.0" cy="256.9" r="5" fill="#4f6b3c"><title>U.S. 2026-07-13: $3.855 per gallon</title></circle><circle cx="900.0" cy="202.1" r="5" fill="#4f6b3c"><title>U.S. 2026-07-20: $4.001 per gallon</title></circle></g><text x="480" y="458" text-anchor="middle">Week ending (2026)</text><text transform="translate(24 245) rotate(-90)" text-anchor="middle">Dollars per gallon, including taxes</text><text x="480" y="490" text-anchor="middle" font-size="13">EIA aggregate benchmarks — not station prices. Released 2026-07-21.</text></g><foreignObject x="0" y="0" width="1" height="1"><table xmlns="http://www.w3.org/1999/xhtml"><caption>EIA weekly regular gasoline benchmarks</caption><thead><tr><th>Area</th><th>2026-06-15</th><th>2026-06-22</th><th>2026-06-29</th><th>2026-07-06</th><th>2026-07-13</th><th>2026-07-20</th></tr></thead><tbody><tr><th scope="row">Chicago</th><td>4.258</td><td>4.079</td><td>4.016</td><td>3.893</td><td>3.982</td><td>4.032</td></tr><tr><th scope="row">Midwest (PADD 2)</th><td>3.861</td><td>3.723</td><td>3.625</td><td>3.531</td><td>3.662</td><td>3.780</td></tr><tr><th scope="row">U.S.</th><td>4.052</td><td>3.914</td><td>3.831</td><td>3.777</td><td>3.855</td><td>4.001</td></tr></tbody></table></foreignObject></svg>
